<svg width="355" height="422" viewBox="0 0 355 422" fill="none" xmlns="http://www.w3.org/2000/svg">
<path d="M203.999 5.00066L29.4988 181.001C-16.0009 228 1.50014 286.5 20.4988 312.001L106.5 397.5C144.5 410.5 150.5 375 137.999 360.001L61.4988 283.501C41.8988 255.101 53.3321 228.334 61.4988 218.501L240.998 36.5003C252.498 0.999916 221.498 -6.4998 203.999 5.00066Z" fill="white"/>
<path d="M226.501 98.0001C210.391 86.3658 194.501 84.3334 188.001 85.5001L155.501 98.4999C136.334 119.167 106.355 163.308 131.5 144C159.5 122.5 190.001 131.5 199.501 139.5L251.001 190C284.501 203.5 293.001 176 288.501 159C277.001 145 244.501 111 226.501 98.0001Z" fill="white"/>
<path d="M226.504 402.498C217.004 410.5 186.99 421.248 180.503 420.011L161.5 420.011L140.5 416.5L123 408.5L114 403.5L108.001 398C89.0571 377.128 106.309 334.143 131.246 353.72C159.013 375.52 189.609 366.848 199.194 358.951L251.234 309.007C284.877 295.868 293.186 326.549 288.503 343.5C276.854 357.376 248.515 383.956 226.504 402.498Z" fill="white"/>
<rect x="129" y="227" width="226" height="47" rx="23.5" fill="white"/>
</svg>
